<svg width="32" height="32" viewBox="0 0 32 32" fill="none" xmlns="http://www.w3.org/2000/svg">
<mask id="mask0_1_1593" style="mask-type:alpha" maskUnits="userSpaceOnUse" x="0" y="0" width="32" height="32">
<rect y="0.548401" width="32" height="30.9677" fill="#D9D9D9"/>
</mask>
<g mask="url(#mask0_1_1593)">
<path d="M30.1333 31.5161C26.3111 31.5161 22.5855 30.6915 18.9564 29.0422C15.3262 27.394 12.1114 25.2148 9.312 22.5045C6.51141 19.7954 4.25956 16.6843 2.55644 13.1712C0.852148 9.65922 0 6.05378 0 2.35485C0 1.83872 0.177778 1.40862 0.533333 1.06453C0.888889 0.720444 1.33333 0.548401 1.86667 0.548401H9.06667C9.48148 0.548401 9.85185 0.677433 10.1778 0.935497C10.5037 1.19356 10.6963 1.52331 10.7556 1.92474L11.9111 7.94625C11.9704 8.34768 11.9633 8.71299 11.8898 9.04216C11.8151 9.37249 11.6444 9.66668 11.3778 9.92474L7.11111 14.1398C8.35556 16.2043 9.91111 18.1398 11.7778 19.9462C13.6444 21.7527 15.7037 23.3154 17.9556 24.6344L22.1333 20.5914C22.4 20.3333 22.7484 20.1395 23.1787 20.0099C23.6077 19.8814 24.0296 19.8459 24.4444 19.9032L30.5778 21.1075C30.9926 21.1936 31.3333 21.3868 31.6 21.6873C31.8667 21.989 32 22.3405 32 22.7419V29.7097C32 30.2258 31.8222 30.6559 31.4667 31C31.1111 31.3441 30.6667 31.5161 30.1333 31.5161Z" fill="white"/>
</g>
</svg>
